<svg xmlns="http://www.w3.org/2000/svg" xmlns:xlink="http://www.w3.org/1999/xlink" width="64" zoomAndPan="magnify" viewBox="0 0 48 48" height="64" preserveAspectRatio="xMidYMid meet" version="1.0"><defs><clipPath id="1aedd22cb2"><path d="M 2 1.304688 L 46.363281 1.304688 L 46.363281 45.386719 L 2 45.386719 Z M 2 1.304688 " clip-rule="nonzero"/></clipPath><clipPath id="6c07ce753a"><path d="M 2 1.304688 L 46.363281 1.304688 L 46.363281 45.386719 L 2 45.386719 Z M 2 1.304688 " clip-rule="nonzero"/></clipPath></defs><g clip-path="url(#1aedd22cb2)"><path fill="#000000" d="M 46.433594 23.5 C 46.433594 24.796875 45.929688 26.011719 45.015625 26.925781 L 27.660156 44.277344 C 26.746094 45.195312 25.53125 45.699219 24.234375 45.699219 C 22.941406 45.699219 21.726562 45.195312 20.808594 44.277344 L 3.457031 26.925781 C 1.570312 25.039062 1.570312 21.964844 3.457031 20.074219 L 20.808594 2.722656 C 21.726562 1.808594 22.941406 1.304688 24.238281 1.304688 C 25.53125 1.304688 26.746094 1.808594 27.664062 2.722656 L 34.652344 9.714844 C 34.75 9.808594 34.75 9.964844 34.652344 10.0625 C 34.554688 10.15625 34.398438 10.15625 34.304688 10.0625 L 27.316406 3.070312 C 26.492188 2.25 25.398438 1.796875 24.238281 1.796875 C 23.074219 1.796875 21.980469 2.25 21.160156 3.070312 L 3.808594 20.421875 C 2.109375 22.121094 2.109375 24.882812 3.808594 26.578125 L 21.160156 43.929688 C 21.984375 44.753906 23.074219 45.207031 24.238281 45.207031 C 25.402344 45.207031 26.492188 44.753906 27.316406 43.929688 L 44.667969 26.578125 C 45.488281 25.757812 45.941406 24.664062 45.941406 23.5 C 45.941406 22.335938 45.488281 21.242188 44.667969 20.421875 L 40.804688 16.558594 C 40.707031 16.460938 40.707031 16.308594 40.804688 16.210938 C 40.902344 16.117188 41.058594 16.113281 41.152344 16.210938 L 45.015625 20.074219 C 45.929688 20.988281 46.433594 22.203125 46.433594 23.5 Z M 38.199219 13.957031 C 38.246094 14.003906 38.3125 14.03125 38.375 14.03125 C 38.4375 14.03125 38.5 14.003906 38.546875 13.957031 C 38.644531 13.859375 38.644531 13.703125 38.546875 13.609375 L 37.003906 12.066406 C 36.910156 11.96875 36.753906 11.96875 36.65625 12.066406 C 36.5625 12.164062 36.5625 12.320312 36.65625 12.414062 Z M 7.914062 19.316406 L 11.496094 15.734375 C 11.464844 15.722656 11.4375 15.707031 11.410156 15.679688 C 11.316406 15.585938 11.316406 15.429688 11.410156 15.332031 L 22.15625 4.585938 C 23.304688 3.441406 25.167969 3.441406 26.316406 4.585938 L 43.152344 21.421875 C 43.707031 21.976562 44.011719 22.714844 44.011719 23.5 C 44.011719 24.285156 43.707031 25.023438 43.152344 25.578125 L 26.316406 42.414062 C 25.746094 42.988281 24.992188 43.273438 24.238281 43.273438 C 23.484375 43.273438 22.730469 42.988281 22.160156 42.414062 L 5.324219 25.582031 C 4.769531 25.027344 4.460938 24.289062 4.460938 23.503906 C 4.460938 22.714844 4.765625 21.976562 5.324219 21.421875 L 7.511719 19.234375 C 7.605469 19.140625 7.761719 19.140625 7.859375 19.234375 C 7.882812 19.261719 7.902344 19.289062 7.914062 19.320312 Z M 11.65625 19.824219 L 14.035156 19.222656 L 13.910156 18.726562 L 11.53125 19.328125 Z M 12.125 21.6875 L 14.441406 21.101562 L 14.316406 20.605469 L 12 21.191406 Z M 17.496094 23.667969 L 16.820312 21.003906 C 16.785156 20.871094 16.867188 20.738281 17 20.703125 L 16.679688 19.441406 C 16.546875 19.472656 16.414062 19.394531 16.378906 19.261719 L 15.628906 16.308594 L 11.277344 18.335938 L 11.410156 18.851562 L 14.027344 18.1875 C 14.160156 18.15625 14.292969 18.234375 14.328125 18.367188 L 14.574219 19.339844 C 14.589844 19.402344 14.578125 19.46875 14.542969 19.527344 C 14.511719 19.582031 14.457031 19.625 14.394531 19.640625 L 11.777344 20.304688 L 11.878906 20.714844 L 14.433594 20.066406 C 14.5 20.050781 14.5625 20.058594 14.621094 20.09375 C 14.679688 20.128906 14.71875 20.183594 14.734375 20.246094 L 14.980469 21.21875 C 15.015625 21.351562 14.9375 21.484375 14.800781 21.515625 L 12.25 22.164062 L 12.777344 24.246094 L 14.835938 23.992188 L 14.421875 22.367188 C 14.40625 22.292969 14.449219 22.21875 14.523438 22.199219 L 15.371094 21.984375 C 15.441406 21.96875 15.515625 22.011719 15.535156 22.085938 L 15.984375 23.855469 Z M 36.425781 23.855469 L 36.882812 22.054688 C 36.75 22.019531 36.671875 21.886719 36.703125 21.753906 L 37.558594 18.378906 L 32.984375 17.21875 L 32.777344 18.050781 L 34.171875 18.402344 C 34.300781 18.4375 34.382812 18.570312 34.347656 18.703125 C 34.320312 18.8125 34.222656 18.886719 34.109375 18.886719 C 34.089844 18.886719 34.070312 18.886719 34.050781 18.878906 L 32.65625 18.527344 L 32.53125 19.019531 L 33.925781 19.375 C 34.058594 19.40625 34.136719 19.542969 34.105469 19.671875 C 34.078125 19.785156 33.976562 19.859375 33.867188 19.859375 C 33.847656 19.859375 33.824219 19.855469 33.804688 19.851562 L 32.410156 19.496094 L 32.285156 19.992188 L 33.679688 20.34375 C 33.8125 20.378906 33.894531 20.511719 33.859375 20.644531 C 33.832031 20.753906 33.730469 20.828125 33.621094 20.828125 C 33.601562 20.828125 33.582031 20.828125 33.5625 20.820312 L 32.167969 20.46875 L 31.425781 23.386719 L 32.550781 23.492188 L 32.953125 21.902344 C 32.972656 21.828125 33.046875 21.785156 33.121094 21.804688 L 33.96875 22.019531 C 34.042969 22.039062 34.085938 22.113281 34.066406 22.1875 L 33.707031 23.597656 L 36.429688 23.847656 Z M 36.425781 23.855469 " fill-opacity="1" fill-rule="nonzero"/></g><path fill="#38b6ff" d="M 42.800781 21.769531 L 25.96875 4.9375 C 25.015625 3.980469 23.460938 3.980469 22.503906 4.9375 L 11.761719 15.679688 C 11.6875 15.753906 11.585938 15.769531 11.496094 15.734375 L 7.914062 19.316406 C 7.949219 19.40625 7.929688 19.511719 7.859375 19.582031 L 5.671875 21.769531 C 5.210938 22.230469 4.953125 22.847656 4.953125 23.5 C 4.953125 24.105469 5.175781 24.675781 5.574219 25.125 L 12.28125 24.304688 L 10.75 18.257812 C 10.71875 18.144531 10.777344 18.023438 10.882812 17.972656 L 15.691406 15.730469 C 15.757812 15.699219 15.835938 15.699219 15.902344 15.730469 C 15.96875 15.761719 16.015625 15.820312 16.035156 15.894531 L 16.859375 19.140625 C 16.890625 19.269531 16.8125 19.40625 16.679688 19.4375 L 17 20.703125 C 17.128906 20.667969 17.265625 20.75 17.296875 20.882812 L 17.988281 23.605469 L 21.167969 23.214844 C 21.222656 23.210938 21.265625 23.253906 21.257812 23.308594 L 20.179688 29.460938 C 20.175781 29.484375 20.183594 29.507812 20.199219 29.527344 L 23.449219 33.359375 C 23.472656 33.382812 23.472656 33.417969 23.460938 33.449219 L 22.148438 35.957031 C 22.132812 35.984375 22.136719 36.019531 22.15625 36.042969 L 24.375 38.957031 C 24.429688 39.03125 24.542969 38.96875 24.511719 38.882812 L 23.738281 36.699219 C 23.730469 36.667969 23.734375 36.636719 23.757812 36.613281 L 27.160156 33.328125 C 27.1875 33.300781 27.191406 33.257812 27.167969 33.226562 L 24.277344 29.253906 C 24.253906 29.222656 24.257812 29.183594 24.28125 29.15625 L 29.371094 23.234375 C 29.386719 23.210938 29.414062 23.203125 29.4375 23.203125 L 30.925781 23.34375 L 32.570312 16.855469 C 32.589844 16.792969 32.628906 16.738281 32.683594 16.703125 C 32.742188 16.671875 32.808594 16.660156 32.871094 16.675781 L 37.921875 17.957031 C 38.054688 17.992188 38.132812 18.125 38.101562 18.257812 L 37.183594 21.871094 C 37.152344 22.003906 37.015625 22.082031 36.886719 22.046875 L 36.429688 23.851562 L 43.3125 24.484375 C 43.445312 24.175781 43.519531 23.84375 43.519531 23.496094 C 43.519531 22.839844 43.265625 22.226562 42.804688 21.765625 Z M 22.886719 17.984375 L 20.578125 13.691406 C 20.527344 13.59375 20.570312 13.476562 20.671875 13.4375 L 21.933594 12.945312 C 22.039062 12.90625 22.152344 12.964844 22.175781 13.074219 L 23.222656 17.859375 C 23.269531 18.066406 22.988281 18.167969 22.886719 17.984375 Z M 28.167969 16.902344 L 24.148438 23.039062 C 23.980469 23.300781 23.574219 23.109375 23.667969 22.8125 L 25.835938 15.839844 C 25.882812 15.6875 26.054688 15.609375 26.203125 15.675781 L 28.054688 16.507812 C 28.207031 16.578125 28.261719 16.761719 28.167969 16.902344 Z M 28.167969 16.902344 " fill-opacity="1" fill-rule="nonzero"/><g clip-path="url(#6c07ce753a)"><path fill="#000000" d="M 46.433594 23.5 C 46.433594 24.796875 45.929688 26.011719 45.015625 26.925781 L 27.660156 44.277344 C 26.746094 45.195312 25.53125 45.699219 24.234375 45.699219 C 22.941406 45.699219 21.726562 45.195312 20.808594 44.277344 L 3.457031 26.925781 C 1.570312 25.039062 1.570312 21.964844 3.457031 20.074219 L 20.808594 2.722656 C 21.726562 1.808594 22.941406 1.304688 24.238281 1.304688 C 25.53125 1.304688 26.746094 1.808594 27.664062 2.722656 L 34.652344 9.714844 C 34.75 9.808594 34.75 9.964844 34.652344 10.0625 C 34.554688 10.15625 34.398438 10.15625 34.304688 10.0625 L 27.316406 3.070312 C 26.492188 2.25 25.398438 1.796875 24.238281 1.796875 C 23.074219 1.796875 21.980469 2.25 21.160156 3.070312 L 3.808594 20.421875 C 2.109375 22.121094 2.109375 24.882812 3.808594 26.578125 L 21.160156 43.929688 C 21.984375 44.753906 23.074219 45.207031 24.238281 45.207031 C 25.402344 45.207031 26.492188 44.753906 27.316406 43.929688 L 44.667969 26.578125 C 45.488281 25.757812 45.941406 24.664062 45.941406 23.5 C 45.941406 22.335938 45.488281 21.242188 44.667969 20.421875 L 40.804688 16.558594 C 40.707031 16.460938 40.707031 16.308594 40.804688 16.210938 C 40.902344 16.117188 41.058594 16.113281 41.152344 16.210938 L 45.015625 20.074219 C 45.929688 20.988281 46.433594 22.203125 46.433594 23.5 Z M 38.199219 13.957031 C 38.246094 14.003906 38.3125 14.03125 38.375 14.03125 C 38.4375 14.03125 38.5 14.003906 38.546875 13.957031 C 38.644531 13.859375 38.644531 13.703125 38.546875 13.609375 L 37.003906 12.066406 C 36.910156 11.96875 36.753906 11.96875 36.65625 12.066406 C 36.5625 12.164062 36.5625 12.320312 36.65625 12.414062 Z M 5.671875 21.769531 C 5.210938 22.230469 4.953125 22.847656 4.953125 23.5 C 4.953125 24.105469 5.175781 24.675781 5.574219 25.125 L 12.28125 24.304688 L 10.75 18.257812 C 10.71875 18.144531 10.777344 18.023438 10.882812 17.972656 L 15.691406 15.730469 C 15.757812 15.699219 15.835938 15.699219 15.902344 15.730469 C 15.96875 15.761719 16.015625 15.820312 16.035156 15.894531 L 16.859375 19.140625 C 16.890625 19.269531 16.8125 19.40625 16.679688 19.4375 C 16.546875 19.472656 16.414062 19.390625 16.378906 19.261719 L 15.628906 16.304688 L 11.277344 18.335938 L 11.410156 18.851562 L 14.027344 18.1875 C 14.160156 18.15625 14.292969 18.234375 14.328125 18.363281 L 14.574219 19.335938 C 14.589844 19.402344 14.578125 19.46875 14.542969 19.523438 C 14.511719 19.582031 14.457031 19.621094 14.394531 19.636719 L 11.777344 20.300781 L 11.878906 20.710938 L 14.433594 20.066406 C 14.5 20.050781 14.5625 20.058594 14.621094 20.09375 C 14.679688 20.125 14.71875 20.183594 14.734375 20.246094 L 14.980469 21.21875 C 15.015625 21.347656 14.9375 21.484375 14.800781 21.515625 L 12.25 22.164062 L 12.777344 24.242188 L 14.835938 23.992188 L 14.421875 22.363281 C 14.40625 22.292969 14.449219 22.21875 14.523438 22.199219 L 15.371094 21.984375 C 15.441406 21.964844 15.515625 22.011719 15.535156 22.082031 L 15.984375 23.851562 L 17.496094 23.667969 L 16.820312 21.003906 C 16.789062 20.871094 16.867188 20.738281 17 20.703125 C 17.132812 20.671875 17.265625 20.75 17.300781 20.882812 L 17.988281 23.605469 L 21.167969 23.21875 C 21.222656 23.210938 21.265625 23.257812 21.257812 23.3125 L 20.183594 29.464844 C 20.179688 29.488281 20.183594 29.511719 20.199219 29.527344 L 23.453125 33.363281 C 23.472656 33.386719 23.476562 33.421875 23.460938 33.449219 L 22.152344 35.957031 C 22.136719 35.988281 22.140625 36.019531 22.15625 36.042969 L 24.375 38.960938 C 24.433594 39.03125 24.546875 38.972656 24.515625 38.882812 L 23.742188 36.699219 C 23.730469 36.671875 23.738281 36.636719 23.761719 36.617188 L 27.160156 33.332031 C 27.1875 33.300781 27.195312 33.257812 27.171875 33.226562 L 24.277344 29.253906 C 24.257812 29.226562 24.257812 29.183594 24.28125 29.15625 L 29.371094 23.234375 C 29.386719 23.214844 29.414062 23.203125 29.4375 23.207031 L 30.929688 23.34375 L 32.574219 16.855469 C 32.589844 16.792969 32.628906 16.738281 32.6875 16.707031 C 32.742188 16.671875 32.808594 16.664062 32.875 16.679688 L 37.925781 17.960938 C 38.054688 17.992188 38.136719 18.128906 38.101562 18.257812 L 37.1875 21.871094 C 37.152344 22.003906 37.019531 22.085938 36.886719 22.050781 C 36.757812 22.015625 36.675781 21.882812 36.707031 21.75 L 37.5625 18.375 L 32.992188 17.214844 L 32.78125 18.046875 L 34.175781 18.398438 C 34.308594 18.433594 34.386719 18.566406 34.355469 18.699219 C 34.328125 18.808594 34.226562 18.882812 34.117188 18.882812 C 34.097656 18.882812 34.074219 18.882812 34.054688 18.875 L 32.660156 18.523438 L 32.535156 19.015625 L 33.929688 19.371094 C 34.0625 19.402344 34.140625 19.539062 34.109375 19.667969 C 34.082031 19.78125 33.980469 19.855469 33.871094 19.855469 C 33.851562 19.855469 33.832031 19.851562 33.8125 19.847656 L 32.414062 19.492188 L 32.292969 19.988281 L 33.6875 20.339844 C 33.816406 20.375 33.898438 20.507812 33.863281 20.640625 C 33.835938 20.753906 33.738281 20.824219 33.625 20.824219 C 33.605469 20.824219 33.585938 20.824219 33.566406 20.816406 L 32.171875 20.464844 L 31.433594 23.382812 L 32.558594 23.488281 L 32.960938 21.898438 C 32.976562 21.828125 33.054688 21.785156 33.125 21.800781 L 33.972656 22.015625 C 34.046875 22.035156 34.089844 22.109375 34.070312 22.183594 L 33.714844 23.59375 L 36.4375 23.84375 L 43.316406 24.480469 C 43.453125 24.171875 43.527344 23.839844 43.527344 23.492188 C 43.527344 22.835938 43.273438 22.21875 42.808594 21.757812 L 25.96875 4.9375 C 25.015625 3.980469 23.460938 3.980469 22.503906 4.9375 L 11.761719 15.679688 C 11.6875 15.753906 11.585938 15.769531 11.496094 15.734375 C 11.464844 15.722656 11.4375 15.707031 11.410156 15.679688 C 11.316406 15.585938 11.316406 15.429688 11.410156 15.332031 L 22.15625 4.585938 C 23.304688 3.441406 25.167969 3.441406 26.316406 4.585938 L 43.152344 21.421875 C 43.707031 21.976562 44.011719 22.714844 44.011719 23.5 C 44.011719 24.285156 43.707031 25.023438 43.152344 25.578125 L 26.316406 42.414062 C 25.746094 42.988281 24.992188 43.273438 24.238281 43.273438 C 23.484375 43.273438 22.730469 42.988281 22.160156 42.414062 L 5.324219 25.582031 C 4.769531 25.027344 4.460938 24.289062 4.460938 23.503906 C 4.460938 22.714844 4.765625 21.976562 5.324219 21.421875 L 7.511719 19.234375 C 7.605469 19.140625 7.761719 19.140625 7.859375 19.234375 C 7.882812 19.261719 7.902344 19.289062 7.914062 19.320312 C 7.949219 19.410156 7.929688 19.511719 7.859375 19.585938 Z M 11.65625 19.824219 L 14.035156 19.222656 L 13.910156 18.726562 L 11.53125 19.328125 Z M 12.125 21.6875 L 14.441406 21.101562 L 14.316406 20.605469 L 12 21.191406 Z M 23.222656 17.859375 L 22.175781 13.074219 C 22.152344 12.964844 22.039062 12.90625 21.933594 12.945312 L 20.671875 13.4375 C 20.570312 13.476562 20.527344 13.59375 20.578125 13.691406 L 22.886719 17.984375 C 22.988281 18.167969 23.269531 18.066406 23.222656 17.859375 Z M 24.148438 23.039062 L 28.167969 16.902344 C 28.261719 16.765625 28.207031 16.578125 28.054688 16.507812 L 26.203125 15.675781 C 26.054688 15.605469 25.882812 15.6875 25.835938 15.839844 L 23.667969 22.8125 C 23.574219 23.109375 23.980469 23.300781 24.148438 23.039062 Z M 24.148438 23.039062 " fill-opacity="1" fill-rule="nonzero"/></g></svg>